<svg width="48" height="48" viewBox="0 0 48 48" fill="none" xmlns="http://www.w3.org/2000/svg">
<rect x="0.5" y="0.5" width="47" height="47" rx="15.5" fill="#252525"/>
<rect x="0.5" y="0.5" width="47" height="47" rx="15.5" stroke="#616161"/>
<g clip-path="url(#clip0_1251_1461)">
<path d="M24 16.5C18.75 16.5 18 21 18 24.75C18 28.5 15.75 30.75 15.75 30.75H32.25C32.25 30.75 30 28.5 30 24.75C30 21 29.25 16.5 24 16.5ZM24 16.5V14.25M27 30.75C27 30.75 27 33.75 24 33.75C21 33.75 21 30.75 21 30.75" stroke="#616161" stroke-width="1.5" stroke-linecap="round" stroke-linejoin="round"/>
<circle cx="33" cy="15" r="3" fill="#3B46F1"/>
</g>
<defs>
<clipPath id="clip0_1251_1461">
<rect width="24" height="24" fill="white" transform="translate(12 12)"/>
</clipPath>
</defs>
</svg>
