<svg width="61.07" height="51.43" viewBox="0 0 64 54" fill="none" xmlns="http://www.w3.org/2000/svg">
<path d="M1.46436 4.50005C1.46436 3.64757 1.803 2.83001 2.4058 2.22721C3.00859 1.62441 3.82616 1.28577 4.67864 1.28577H59.3215C60.174 1.28577 60.9916 1.62441 61.5943 2.22721C62.1971 2.83001 62.5358 3.64757 62.5358 4.50005V49.5001C62.5358 50.3525 62.1971 51.1701 61.5943 51.7729C60.9916 52.3757 60.174 52.7143 59.3215 52.7143H4.67864C3.82616 52.7143 3.00859 52.3757 2.4058 51.7729C1.803 51.1701 1.46436 50.3525 1.46436 49.5001V4.50005Z" stroke="#6E6E6E" stroke-width="2.57143" stroke-linecap="round" stroke-linejoin="round"/>
<path d="M16.7322 17.3572C17.3716 17.3572 17.9848 17.1032 18.4369 16.6511C18.889 16.199 19.143 15.5858 19.143 14.9465C19.143 14.3071 18.889 13.6939 18.4369 13.2418C17.9848 12.7898 17.3716 12.5358 16.7322 12.5358C16.0929 12.5358 15.4797 12.7898 15.0276 13.2418C14.5755 13.6939 14.3215 14.3071 14.3215 14.9465C14.3215 15.5858 14.5755 16.199 15.0276 16.6511C15.4797 17.1032 16.0929 17.3572 16.7322 17.3572Z" stroke="#6E6E6E" stroke-width="2.57143" stroke-linecap="round" stroke-linejoin="round"/>
<path d="M17.5358 27L25.5715 33.4286L35.2144 22.1786L62.5358 43.0714V49.5C62.5358 50.3525 62.1971 51.1701 61.5943 51.7729C60.9916 52.3757 60.174 52.7143 59.3215 52.7143H4.67864C3.82616 52.7143 3.00859 52.3757 2.4058 51.7729C1.803 51.1701 1.46436 50.3525 1.46436 49.5V43.0714L17.5358 27Z" stroke="#6E6E6E" stroke-width="2.57143" stroke-linejoin="round"/>
</svg>

