<svg width="28" height="28" viewBox="0 0 28 28" fill="none" xmlns="http://www.w3.org/2000/svg">
<g clip-path="url(#clip0_1251_1482)">
<path d="M3.5 20.3699V23.9166C3.5 24.2433 3.75667 24.4999 4.08333 24.4999H7.63C7.78167 24.4999 7.93333 24.4416 8.03833 24.3249L20.7783 11.5966L16.4033 7.22159L3.675 19.9499C3.55833 20.0666 3.5 20.2066 3.5 20.3699ZM24.1617 8.21325C24.2698 8.10532 24.3556 7.97712 24.4142 7.83598C24.4727 7.69485 24.5028 7.54355 24.5028 7.39075C24.5028 7.23796 24.4727 7.08666 24.4142 6.94553C24.3556 6.80439 24.2698 6.67619 24.1617 6.56825L21.4317 3.83825C21.3237 3.7301 21.1955 3.6443 21.0544 3.58575C20.9133 3.52721 20.762 3.49707 20.6092 3.49707C20.4564 3.49707 20.3051 3.52721 20.1639 3.58575C20.0228 3.6443 19.8946 3.7301 19.7867 3.83825L17.6517 5.97325L22.0267 10.3483L24.1617 8.21325Z" fill="white"/>
<path d="M3.5 20.125V24.5H7.875L20.375 12L16 7.625L3.5 20.125ZM24.1617 6.56833L21.4317 3.83833C21.1983 3.605 20.9067 3.5 20.6033 3.5C20.3 3.5 20.0083 3.61667 19.7867 3.83833L17.6517 5.97333L22.0267 10.3483L24.1617 8.21333C24.2698 8.1054 24.3556 7.9772 24.4142 7.83606C24.4727 7.69493 24.5028 7.54363 24.5028 7.39083C24.5028 7.23804 24.4727 7.08674 24.4142 6.94561C24.3556 6.80447 24.2698 6.67627 24.1617 6.56833Z" stroke="#3B46F1" stroke-width="1.5"/>
</g>
<defs>
<clipPath id="clip0_1251_1482">
<rect width="28" height="28" fill="white"/>
</clipPath>
</defs>
</svg>
