<svg width="24" height="24" viewBox="0 0 24 24" fill="none" xmlns="http://www.w3.org/2000/svg">
  <g transform="translate(2, 1)">
    <path d="M2.70833 10H0.625L10 0.625L19.375 10H17.2917M2.70833 10V17.2917C2.70833 17.8442 2.92783 18.3741 3.31853 18.7648C3.70923 19.1555 4.23913 19.375 4.79167 19.375H15.2083C15.7609 19.375 16.2908 19.1555 16.6815 18.7648C17.0722 18.3741 17.2917 17.8442 17.2917 17.2917V10" stroke="#6E6E6E" stroke-width="2.08333" stroke-linecap="round" stroke-linejoin="round"/>
    <path d="M6.875 19.3751V13.1251C6.875 12.5725 7.09449 12.0426 7.48519 11.6519C7.8759 11.2612 8.4058 11.0417 8.95833 11.0417H11.0417C11.5942 11.0417 12.1241 11.2612 12.5148 11.6519C12.9055 12.0426 13.125 12.5725 13.125 13.1251V19.3751" stroke="#6E6E6E" stroke-width="2.08333" stroke-linecap="round" stroke-linejoin="round"/>
  </g>
</svg>