<svg width="79" height="71" viewBox="0 0 79 71" fill="none" xmlns="http://www.w3.org/2000/svg">
<path d="M8.96436 12.9999C8.96436 12.1474 9.303 11.3299 9.9058 10.7271C10.5086 10.1243 11.3262 9.78564 12.1786 9.78564H66.8215C67.674 9.78564 68.4916 10.1243 69.0943 10.7271C69.6971 11.3299 70.0358 12.1474 70.0358 12.9999V57.9999C70.0358 58.8524 69.6971 59.67 69.0943 60.2728C68.4916 60.8756 67.674 61.2142 66.8215 61.2142H12.1786C11.3262 61.2142 10.5086 60.8756 9.9058 60.2728C9.303 59.67 8.96436 58.8524 8.96436 57.9999V12.9999Z" stroke="#434343" stroke-width="2.57143" stroke-linecap="round" stroke-linejoin="round"/>
<path d="M24.2322 25.8571C24.8716 25.8571 25.4848 25.6031 25.9369 25.151C26.389 24.6989 26.643 24.0857 26.643 23.4464C26.643 22.807 26.389 22.1938 25.9369 21.7417C25.4848 21.2896 24.8716 21.0356 24.2322 21.0356C23.5929 21.0356 22.9797 21.2896 22.5276 21.7417C22.0755 22.1938 21.8215 22.807 21.8215 23.4464C21.8215 24.0857 22.0755 24.6989 22.5276 25.151C22.9797 25.6031 23.5929 25.8571 24.2322 25.8571Z" stroke="#434343" stroke-width="2.57143" stroke-linecap="round" stroke-linejoin="round"/>
<path d="M25.0358 35.4999L33.0715 41.9285L42.7144 30.6785L70.0358 51.5713V57.9999C70.0358 58.8524 69.6971 59.6699 69.0943 60.2727C68.4916 60.8755 67.674 61.2142 66.8215 61.2142H12.1786C11.3262 61.2142 10.5086 60.8755 9.9058 60.2727C9.303 59.6699 8.96436 58.8524 8.96436 57.9999V51.5713L25.0358 35.4999Z" stroke="#434343" stroke-width="2.57143" stroke-linejoin="round"/>
</svg>
