<svg width="24" height="24" viewBox="0 0 24 24" fill="none" xmlns="http://www.w3.org/2000/svg">
<g clip-path="url(#clip0_981_3310)">
<path d="M9.17196 14.829L14.829 9.17196M7.04996 11.293L5.63596 12.707C5.26451 13.0784 4.96987 13.5194 4.76885 14.0047C4.56782 14.49 4.46436 15.0102 4.46436 15.5355C4.46436 16.0608 4.56782 16.5809 4.76885 17.0662C4.96987 17.5515 5.26451 17.9925 5.63596 18.364C6.0074 18.7354 6.44837 19.03 6.93369 19.2311C7.419 19.4321 7.93916 19.5356 8.46446 19.5356C8.98976 19.5356 9.50992 19.4321 9.99523 19.2311C10.4805 19.03 10.9215 18.7354 11.293 18.364L12.705 16.95M11.292 7.04996L12.706 5.63596C13.0774 5.26451 13.5184 4.96987 14.0037 4.76885C14.489 4.56782 15.0092 4.46436 15.5345 4.46436C16.0598 4.46436 16.5799 4.56782 17.0652 4.76885C17.5505 4.96987 17.9915 5.26451 18.363 5.63596C18.7344 6.0074 19.029 6.44837 19.2301 6.93369C19.4311 7.419 19.5346 7.93916 19.5346 8.46446C19.5346 8.98976 19.4311 9.50992 19.2301 9.99523C19.029 10.4805 18.7344 10.9215 18.363 11.293L16.949 12.707" stroke="#6E6E6E" stroke-width="2" stroke-linecap="round" stroke-linejoin="round"/>
</g>
<defs>
<clipPath id="clip0_981_3310">
<rect width="24" height="24" fill="white"/>
</clipPath>
</defs>
</svg>
