<svg width="90" height="130" viewBox="0 0 90 130" fill="none" xmlns="http://www.w3.org/2000/svg">
<path d="M14.3624 13.0263C-5.63765 32.4263 -0.470979 53.1096 4.61235 61.0263C12.8124 68.4262 28.529 53.7763 35.3623 45.5264L14.3624 33.2764L20.8623 27.2764L47.6123 33.2764C52.029 27.8597 61.8123 18.3764 65.6123 23.7764C69.4123 29.1764 60.6956 38.3597 55.8623 42.2764L62.6123 69.0264L55.8623 75.2764L44.1123 53.5264C10.7123 77.7264 21.1956 101.776 30.6123 110.776C58.6123 90.7764 79.8623 81.0264 87.8623 53.5264C94.2623 31.5264 77.3333 12.4431 67.75 6.02638C58.5 0.0263772 34.3624 -6.37371 14.3624 13.0263Z" fill="white"/>
<path d="M83.75 64.25C81.35 79.05 56.75 114.25 44.75 130C29.35 116.4 21.5 100.25 21.5 92L35.5 106.5L47.5625 95.9375L59.625 85.375L71.6875 74.8125L83.75 64.25Z" fill="#3B46F1"/>
</svg>
