<svg width="48" height="48" viewBox="0 0 48 48" fill="none" xmlns="http://www.w3.org/2000/svg">
<rect x="0.5" y="0.5" width="47" height="47" rx="15.5" fill="#252525"/>
<rect x="0.5" y="0.5" width="47" height="47" rx="15.5" stroke="#616161"/>
<g clip-path="url(#clip0_1251_1466)">
<circle cx="24" cy="18" r="4.25" stroke="#6E6E6E" stroke-width="1.5"/>
<mask id="path-3-inside-1_1251_1466" fill="white">
<path d="M32 35C33.1046 35 34.0171 34.0985 33.8349 33.0091C33.7079 32.2504 33.5085 31.5066 33.2388 30.7905C32.7362 29.4559 31.9997 28.2433 31.0711 27.2218C30.1425 26.2004 29.0401 25.3901 27.8268 24.8373C26.6136 24.2845 25.3132 24 24 24C22.6868 24 21.3864 24.2845 20.1732 24.8373C18.9599 25.3901 17.8575 26.2004 16.9289 27.2218C16.0003 28.2433 15.2638 29.4559 14.7612 30.7905C14.4915 31.5066 14.2921 32.2504 14.1652 33.0091C13.9829 34.0985 14.8954 35 16 35L24 35H32Z"/>
</mask>
<path d="M32 35C33.1046 35 34.0171 34.0985 33.8349 33.0091C33.7079 32.2504 33.5085 31.5066 33.2388 30.7905C32.7362 29.4559 31.9997 28.2433 31.0711 27.2218C30.1425 26.2004 29.0401 25.3901 27.8268 24.8373C26.6136 24.2845 25.3132 24 24 24C22.6868 24 21.3864 24.2845 20.1732 24.8373C18.9599 25.3901 17.8575 26.2004 16.9289 27.2218C16.0003 28.2433 15.2638 29.4559 14.7612 30.7905C14.4915 31.5066 14.2921 32.2504 14.1652 33.0091C13.9829 34.0985 14.8954 35 16 35L24 35H32Z" stroke="#6E6E6E" stroke-width="3" mask="url(#path-3-inside-1_1251_1466)"/>
</g>
<defs>
<clipPath id="clip0_1251_1466">
<rect width="24" height="24" fill="white" transform="translate(12 12)"/>
</clipPath>
</defs>
</svg>
