<svg width="72" height="72" viewBox="0 0 72 72" fill="none" xmlns="http://www.w3.org/2000/svg">
<g filter="url(#filter0_d_1251_1473)">
<rect x="4" width="64" height="64" rx="32" fill="white"/>
<g clip-path="url(#clip0_1251_1473)">
<circle cx="43" cy="23.5" r="3" stroke="#3B46F1" stroke-width="1.5"/>
<mask id="path-3-inside-1_1251_1473" fill="white">
<path d="M49 36.25C49.8284 36.25 50.5128 35.5739 50.3761 34.7568C50.2809 34.1878 50.1314 33.63 49.9291 33.0929C49.5522 32.0919 48.9997 31.1825 48.3033 30.4164C47.6069 29.6503 46.7801 29.0426 45.8701 28.628C44.9602 28.2134 43.9849 28 43 28C42.0151 28 41.0398 28.2134 40.1299 28.628C39.2199 29.0426 38.3931 29.6503 37.6967 30.4164C37.0003 31.1825 36.4478 32.0919 36.0709 33.0929C35.8686 33.63 35.7191 34.1878 35.6239 34.7568C35.4872 35.5739 36.1716 36.25 37 36.25L43 36.25H49Z"/>
</mask>
<path d="M49 36.25C49.8284 36.25 50.5128 35.5739 50.3761 34.7568C50.2809 34.1878 50.1314 33.63 49.9291 33.0929C49.5522 32.0919 48.9997 31.1825 48.3033 30.4164C47.6069 29.6503 46.7801 29.0426 45.8701 28.628C44.9602 28.2134 43.9849 28 43 28C42.0151 28 41.0398 28.2134 40.1299 28.628C39.2199 29.0426 38.3931 29.6503 37.6967 30.4164C37.0003 31.1825 36.4478 32.0919 36.0709 33.0929C35.8686 33.63 35.7191 34.1878 35.6239 34.7568C35.4872 35.5739 36.1716 36.25 37 36.25L43 36.25H49Z" stroke="#3B46F1" stroke-width="3" mask="url(#path-3-inside-1_1251_1473)"/>
</g>
<g clip-path="url(#clip1_1251_1473)">
<circle cx="33" cy="24" r="4.25" fill="white" stroke="#3B46F1" stroke-width="1.5"/>
<mask id="path-5-inside-2_1251_1473" fill="white">
<path d="M41 41C42.1046 41 43.0171 40.0985 42.8349 39.0091C42.7079 38.2504 42.5085 37.5066 42.2388 36.7905C41.7362 35.4559 40.9997 34.2433 40.0711 33.2218C39.1425 32.2004 38.0401 31.3901 36.8268 30.8373C35.6136 30.2845 34.3132 30 33 30C31.6868 30 30.3864 30.2845 29.1732 30.8373C27.9599 31.3901 26.8575 32.2004 25.9289 33.2218C25.0003 34.2433 24.2638 35.4559 23.7612 36.7905C23.4915 37.5066 23.2921 38.2504 23.1652 39.0091C22.9829 40.0985 23.8954 41 25 41L33 41H41Z"/>
</mask>
<path d="M41 41C42.1046 41 43.0171 40.0985 42.8349 39.0091C42.7079 38.2504 42.5085 37.5066 42.2388 36.7905C41.7362 35.4559 40.9997 34.2433 40.0711 33.2218C39.1425 32.2004 38.0401 31.3901 36.8268 30.8373C35.6136 30.2845 34.3132 30 33 30C31.6868 30 30.3864 30.2845 29.1732 30.8373C27.9599 31.3901 26.8575 32.2004 25.9289 33.2218C25.0003 34.2433 24.2638 35.4559 23.7612 36.7905C23.4915 37.5066 23.2921 38.2504 23.1652 39.0091C22.9829 40.0985 23.8954 41 25 41L33 41H41Z" fill="white" stroke="#3B46F1" stroke-width="3" mask="url(#path-5-inside-2_1251_1473)"/>
</g>
</g>
<defs>
<filter id="filter0_d_1251_1473" x="0" y="0" width="72" height="72" filterUnits="userSpaceOnUse" color-interpolation-filters="sRGB">
<feFlood flood-opacity="0" result="BackgroundImageFix"/>
<feColorMatrix in="SourceAlpha" type="matrix" values="0 0 0 0 0 0 0 0 0 0 0 0 0 0 0 0 0 0 127 0" result="hardAlpha"/>
<feOffset dy="4"/>
<feGaussianBlur stdDeviation="2"/>
<feComposite in2="hardAlpha" operator="out"/>
<feColorMatrix type="matrix" values="0 0 0 0 0.231373 0 0 0 0 0.27451 0 0 0 0 0.945098 0 0 0 0.25 0"/>
<feBlend mode="normal" in2="BackgroundImageFix" result="effect1_dropShadow_1251_1473"/>
<feBlend mode="normal" in="SourceGraphic" in2="effect1_dropShadow_1251_1473" result="shape"/>
</filter>
<clipPath id="clip0_1251_1473">
<rect width="18" height="18" fill="white" transform="translate(34 19)"/>
</clipPath>
<clipPath id="clip1_1251_1473">
<rect width="24" height="24" fill="white" transform="translate(21 18)"/>
</clipPath>
</defs>
</svg>
