<svg width="24" height="24" viewBox="0 0 24 24" fill="none" xmlns="http://www.w3.org/2000/svg">
<g clip-path="url(#clip0_1251_1478)">
<circle cx="12" cy="6" r="4.25" fill="white" stroke="#3B46F1" stroke-width="1.5"/>
<mask id="path-2-inside-1_1251_1478" fill="white">
<path d="M20 23C21.1046 23 22.0171 22.0985 21.8349 21.0091C21.7079 20.2504 21.5085 19.5066 21.2388 18.7905C20.7362 17.4559 19.9997 16.2433 19.0711 15.2218C18.1425 14.2004 17.0401 13.3901 15.8268 12.8373C14.6136 12.2845 13.3132 12 12 12C10.6868 12 9.38642 12.2845 8.17317 12.8373C6.95991 13.3901 5.85752 14.2004 4.92893 15.2218C4.00035 16.2433 3.26375 17.4559 2.7612 18.7905C2.49153 19.5066 2.29208 20.2504 2.16515 21.0091C1.98289 22.0985 2.89543 23 4 23L12 23H20Z"/>
</mask>
<path d="M20 23C21.1046 23 22.0171 22.0985 21.8349 21.0091C21.7079 20.2504 21.5085 19.5066 21.2388 18.7905C20.7362 17.4559 19.9997 16.2433 19.0711 15.2218C18.1425 14.2004 17.0401 13.3901 15.8268 12.8373C14.6136 12.2845 13.3132 12 12 12C10.6868 12 9.38642 12.2845 8.17317 12.8373C6.95991 13.3901 5.85752 14.2004 4.92893 15.2218C4.00035 16.2433 3.26375 17.4559 2.7612 18.7905C2.49153 19.5066 2.29208 20.2504 2.16515 21.0091C1.98289 22.0985 2.89543 23 4 23L12 23H20Z" fill="white" stroke="#3B46F1" stroke-width="3" mask="url(#path-2-inside-1_1251_1478)"/>
</g>
<defs>
<clipPath id="clip0_1251_1478">
<rect width="24" height="24" fill="white"/>
</clipPath>
</defs>
</svg>
