<svg width="15" height="16" viewBox="0 0 15 16" fill="none" xmlns="http://www.w3.org/2000/svg">
<mask id="path-1-outside-1_1421_814" maskUnits="userSpaceOnUse" x="-1" y="-1" width="17" height="18" fill="black">
<rect fill="white" x="-1" y="-1" width="17" height="18"/>
<path d="M14.1111 16H10.9111L4.08889 7.33333V16H0.266667V0.444444H3.46667L10.2889 9.08889V0.444444H14.1111V16Z"/>
</mask>
<path d="M14.1111 16H10.9111L4.08889 7.33333V16H0.266667V0.444444H3.46667L10.2889 9.08889V0.444444H14.1111V16Z" fill="#03C75A"/>
<path d="M14.1111 16V17H15.1111V16H14.1111ZM10.9111 16L10.1254 16.6185L10.4256 17H10.9111V16ZM4.08889 7.33333L4.87465 6.7148L3.08889 4.44625V7.33333H4.08889ZM4.08889 16V17H5.08889V16H4.08889ZM0.266667 16H-0.733333V17H0.266667V16ZM0.266667 0.444444V-0.555556H-0.733333V0.444444H0.266667ZM3.46667 0.444444L4.25165 -0.175069L3.95137 -0.555556H3.46667V0.444444ZM10.2889 9.08889L9.5039 9.7084L11.2889 11.9702V9.08889H10.2889ZM10.2889 0.444444V-0.555556H9.28889V0.444444H10.2889ZM14.1111 0.444444H15.1111V-0.555556H14.1111V0.444444ZM14.1111 15H10.9111V17H14.1111V15ZM11.6969 15.3815L4.87465 6.7148L3.30313 7.95187L10.1254 16.6185L11.6969 15.3815ZM3.08889 7.33333V16H5.08889V7.33333H3.08889ZM4.08889 15H0.266667V17H4.08889V15ZM1.26667 16V0.444444H-0.733333V16H1.26667ZM0.266667 1.44444H3.46667V-0.555556H0.266667V1.44444ZM2.68168 1.06396L9.5039 9.7084L11.0739 8.46938L4.25165 -0.175069L2.68168 1.06396ZM11.2889 9.08889V0.444444H9.28889V9.08889H11.2889ZM10.2889 1.44444H14.1111V-0.555556H10.2889V1.44444ZM13.1111 0.444444V16H15.1111V0.444444H13.1111Z" fill="#03C75A" mask="url(#path-1-outside-1_1421_814)"/>
</svg>
