<svg width="18" height="18" viewBox="0 0 18 18" fill="none" xmlns="http://www.w3.org/2000/svg">
<path d="M17 16.9999L12.95 12.9499M12.95 12.9499C13.6 12.2998 14.1157 11.5281 14.4675 10.6788C14.8193 9.82947 15.0003 8.91917 15.0003 7.99987C15.0003 7.08057 14.8193 6.17027 14.4675 5.32095C14.1157 4.47163 13.6 3.69991 12.95 3.04987C12.2999 2.39983 11.5282 1.88418 10.6789 1.53238C9.82959 1.18058 8.91929 0.999512 7.99999 0.999512C7.08069 0.999512 6.17039 1.18058 5.32107 1.53238C4.47175 1.88418 3.70003 2.39983 3.04999 3.04987C1.73717 4.36269 0.999634 6.14326 0.999634 7.99987C0.999634 9.85648 1.73717 11.637 3.04999 12.9499C4.36281 14.2627 6.14338 15.0002 7.99999 15.0002C9.8566 15.0002 11.6372 14.2627 12.95 12.9499Z" stroke="#6E6E6E" stroke-width="2" stroke-linecap="round" stroke-linejoin="round"/>
</svg>
