<svg width="27" height="27" viewBox="0 0 27 27" fill="none" xmlns="http://www.w3.org/2000/svg">
<path d="M4.33333 0C3.18406 0 2.08186 0.456546 1.2692 1.2692C0.456546 2.08186 0 3.18406 0 4.33333V19.6667C0 20.8159 0.456546 21.9181 1.2692 22.7308C2.08186 23.5435 3.18406 24 4.33333 24H12.0293C11.6301 23.3765 11.3124 22.7043 11.084 22H4.33333C3.71449 22 3.121 21.7542 2.68342 21.3166C2.24583 20.879 2 20.2855 2 19.6667V4.33333C2 3.04533 3.04533 2 4.33333 2H19.6667C20.9547 2 22 3.04533 22 4.33333V11.084C22.7043 11.3124 23.3765 11.6301 24 12.0293V4.33333C24 3.18406 23.5435 2.08186 22.7308 1.2692C21.9181 0.456546 20.8159 0 19.6667 0H4.33333ZM19.3333 10.6667C19.5351 10.6667 19.736 10.6733 19.936 10.6867C19.9932 10.5353 20.0128 10.3723 19.9931 10.2117C19.9734 10.051 19.915 9.8976 19.823 9.7645C19.7309 9.63141 19.6079 9.52264 19.4646 9.44754C19.3213 9.37244 19.1618 9.33325 19 9.33333H13C12.7348 9.33333 12.4804 9.43869 12.2929 9.62623C12.1054 9.81376 12 10.0681 12 10.3333C12 10.5985 12.1054 10.8529 12.2929 11.0404C12.4804 11.228 12.7348 11.3333 13 11.3333H15.9947C17.0525 10.8926 18.1873 10.666 19.3333 10.6667ZM5 4C4.73478 4 4.48043 4.10536 4.29289 4.29289C4.10536 4.48043 4 4.73478 4 5C4 5.26522 4.10536 5.51957 4.29289 5.70711C4.48043 5.89464 4.73478 6 5 6H19C19.2652 6 19.5196 5.89464 19.7071 5.70711C19.8946 5.51957 20 5.26522 20 5C20 4.73478 19.8946 4.48043 19.7071 4.29289C19.5196 4.10536 19.2652 4 19 4H5ZM4 10.3333C4 9.93937 4.0776 9.54926 4.22836 9.18528C4.37913 8.82131 4.6001 8.49059 4.87868 8.21201C5.15726 7.93344 5.48797 7.71246 5.85195 7.5617C6.21593 7.41093 6.60603 7.33333 7 7.33333C7.39397 7.33333 7.78407 7.41093 8.14805 7.5617C8.51203 7.71246 8.84274 7.93344 9.12132 8.21201C9.3999 8.49059 9.62087 8.82131 9.77164 9.18528C9.9224 9.54926 10 9.93937 10 10.3333C10 11.129 9.68393 11.892 9.12132 12.4547C8.55871 13.0173 7.79565 13.3333 7 13.3333C6.20435 13.3333 5.44129 13.0173 4.87868 12.4547C4.31607 11.892 4 11.129 4 10.3333ZM7 9.33333C6.73478 9.33333 6.48043 9.43869 6.29289 9.62623C6.10536 9.81376 6 10.0681 6 10.3333C6 10.5985 6.10536 10.8529 6.29289 11.0404C6.48043 11.228 6.73478 11.3333 7 11.3333C7.26522 11.3333 7.51957 11.228 7.70711 11.0404C7.89464 10.8529 8 10.5985 8 10.3333C8 10.0681 7.89464 9.81376 7.70711 9.62623C7.51957 9.43869 7.26522 9.33333 7 9.33333ZM7 14.6667C6.20435 14.6667 5.44129 14.9827 4.87868 15.5453C4.31607 16.108 4 16.871 4 17.6667C4 18.4623 4.31607 19.2254 4.87868 19.788C5.44129 20.3506 6.20435 20.6667 7 20.6667C7.79565 20.6667 8.55871 20.3506 9.12132 19.788C9.68393 19.2254 10 18.4623 10 17.6667C10 16.871 9.68393 16.108 9.12132 15.5453C8.55871 14.9827 7.79565 14.6667 7 14.6667ZM6 17.6667C6 17.4015 6.10536 17.1471 6.29289 16.9596C6.48043 16.772 6.73478 16.6667 7 16.6667C7.26522 16.6667 7.51957 16.772 7.70711 16.9596C7.89464 17.1471 8 17.4015 8 17.6667C8 17.9319 7.89464 18.1862 7.70711 18.3738C7.51957 18.5613 7.26522 18.6667 7 18.6667C6.73478 18.6667 6.48043 18.5613 6.29289 18.3738C6.10536 18.1862 6 17.9319 6 17.6667ZM26.6667 19.3333C26.6667 17.3884 25.8941 15.5232 24.5188 14.1479C23.1435 12.7726 21.2783 12 19.3333 12C17.3884 12 15.5232 12.7726 14.1479 14.1479C12.7726 15.5232 12 17.3884 12 19.3333C12 21.2783 12.7726 23.1435 14.1479 24.5188C15.5232 25.8941 17.3884 26.6667 19.3333 26.6667C21.2783 26.6667 23.1435 25.8941 24.5188 24.5188C25.8941 23.1435 26.6667 21.2783 26.6667 19.3333ZM20 20L20.0013 23.3373C20.0013 23.5141 19.9311 23.6837 19.8061 23.8087C19.681 23.9338 19.5115 24.004 19.3347 24.004C19.1579 24.004 18.9883 23.9338 18.8633 23.8087C18.7382 23.6837 18.668 23.5141 18.668 23.3373V20H15.328C15.1512 20 14.9816 19.9298 14.8566 19.8047C14.7316 19.6797 14.6613 19.5101 14.6613 19.3333C14.6613 19.1565 14.7316 18.987 14.8566 18.8619C14.9816 18.7369 15.1512 18.6667 15.328 18.6667H18.6667V15.3333C18.6667 15.1565 18.7369 14.987 18.8619 14.8619C18.987 14.7369 19.1565 14.6667 19.3333 14.6667C19.5101 14.6667 19.6797 14.7369 19.8047 14.8619C19.9298 14.987 20 15.1565 20 15.3333V18.6667H23.3293C23.5061 18.6667 23.6757 18.7369 23.8007 18.8619C23.9258 18.987 23.996 19.1565 23.996 19.3333C23.996 19.5101 23.9258 19.6797 23.8007 19.8047C23.6757 19.9298 23.5061 20 23.3293 20H20Z" fill="#3B46F1"/>
</svg>
