<svg width="24" height="24" viewBox="0 0 24 24" fill="none" xmlns="http://www.w3.org/2000/svg">
<path fill-rule="evenodd" clip-rule="evenodd" d="M15.668 7C15.668 6.80109 15.747 6.61032 15.8877 6.46967C16.0283 6.32902 16.2191 6.25 16.418 6.25H22C22.1989 6.25 22.3897 6.32902 22.5304 6.46967C22.671 6.61032 22.75 6.80109 22.75 7V12.546C22.75 12.7449 22.671 12.9357 22.5304 13.0763C22.3897 13.217 22.1989 13.296 22 13.296C21.8011 13.296 21.6103 13.217 21.4697 13.0763C21.329 12.9357 21.25 12.7449 21.25 12.546V8.803L15.114 14.9C14.645 15.366 14.241 15.768 13.874 16.047C13.48 16.345 13.044 16.571 12.505 16.571C11.967 16.571 11.53 16.345 11.136 16.046C10.769 15.768 10.366 15.366 9.89602 14.9L9.62202 14.627C9.10802 14.116 8.77502 13.787 8.49702 13.576C8.23702 13.378 8.11502 13.356 8.03402 13.356C7.95402 13.356 7.83202 13.379 7.57202 13.576C7.29502 13.787 6.96202 14.116 6.44802 14.628L2.52902 18.53C2.3866 18.6622 2.19841 18.734 2.00411 18.7302C1.80981 18.7264 1.62457 18.6474 1.48741 18.5097C1.35025 18.372 1.27189 18.1865 1.26883 17.9922C1.26577 17.7978 1.33826 17.6099 1.47102 17.468L5.42402 13.53C5.89402 13.064 6.29702 12.661 6.66402 12.382C7.05802 12.082 7.49502 11.857 8.03402 11.856C8.57302 11.856 9.01002 12.082 9.40402 12.381C9.77102 12.66 10.175 13.062 10.644 13.529L10.919 13.801C11.433 14.312 11.766 14.641 12.043 14.851C12.303 15.049 12.425 15.071 12.505 15.071C12.585 15.071 12.707 15.049 12.967 14.851C13.245 14.641 13.577 14.312 14.092 13.801L20.182 7.749H16.418C16.2191 7.749 16.0283 7.66998 15.8877 7.52933C15.747 7.38868 15.668 7.19891 15.668 7Z" fill="#3B46F1"/>
</svg>
