<svg width="32" height="32" viewBox="0 0 32 32" fill="none" xmlns="http://www.w3.org/2000/svg">
<path d="M13.3332 4.33337C10.5385 4.33337 8.22788 6.54671 8.22788 9.33337C8.22788 12.12 10.5385 14.3334 13.3332 14.3334C15.5332 14.3334 17.4332 12.9614 18.1425 11.0187C18.4796 11.7378 19.0498 12.3219 19.7605 12.6764C20.4711 13.0309 21.2807 13.1349 22.058 12.9716C22.8352 12.8083 23.5344 12.3873 24.0424 11.7768C24.5503 11.1662 24.8371 10.402 24.8563 9.60808C24.8755 8.81413 24.626 8.03696 24.1481 7.40262C23.6703 6.76827 22.9922 6.31392 22.2237 6.11326C21.4553 5.9126 20.6416 5.97738 19.9147 6.2971C19.1877 6.61682 18.59 7.17274 18.2185 7.87471C17.5785 5.81337 15.6185 4.33337 13.3332 4.33337ZM10.2279 9.33337C10.2279 7.70137 11.5932 6.33337 13.3332 6.33337C15.0732 6.33337 16.4385 7.70137 16.4385 9.33337C16.4385 10.9654 15.0732 12.3334 13.3332 12.3334C11.5932 12.3334 10.2279 10.9654 10.2279 9.33337ZM19.1425 9.52404C19.1425 8.94304 19.3734 8.38583 19.7842 7.97501C20.195 7.56418 20.7522 7.33337 21.3332 7.33337C21.9142 7.33337 22.4714 7.56418 22.8822 7.97501C23.2931 8.38583 23.5239 8.94304 23.5239 9.52404C23.5239 10.105 23.2931 10.6622 22.8822 11.0731C22.4714 11.4839 21.9142 11.7147 21.3332 11.7147C20.7522 11.7147 20.195 11.4839 19.7842 11.0731C19.3734 10.6622 19.1425 10.105 19.1425 9.52404ZM11.0465 15.6094C10.5092 15.2614 9.73455 14.9934 8.91855 15.2174C8.70077 15.2778 8.48388 15.3423 8.26788 15.4107L6.95588 15.832C5.31188 16.3574 4.03855 17.6627 3.60922 19.316L3.59455 19.3694L3.03455 23.3054C2.81188 24.8787 3.68122 26.5067 5.40788 26.9067C7.00388 27.2774 9.57588 27.6667 13.3332 27.6667C17.0905 27.6667 19.6612 27.2774 21.2599 26.9067C22.9839 26.5067 23.8545 24.88 23.6319 23.3054L23.0719 19.3707L23.0585 19.316C22.6279 17.6627 21.3545 16.3574 19.7105 15.832L18.3985 15.4107C18.1825 15.3423 17.9657 15.2778 17.7479 15.2174C16.9319 14.9934 16.1572 15.2614 15.6199 15.6094C15.1265 15.9294 14.3212 16.3147 13.3332 16.3147C12.3465 16.3147 11.5399 15.9294 11.0465 15.6094ZM9.44922 17.144C9.53455 17.1214 9.71855 17.1307 9.96122 17.2867C10.6439 17.7294 11.8279 18.3134 13.3332 18.3134C14.8385 18.3134 16.0225 17.7294 16.7065 17.2867C16.9465 17.1307 17.1319 17.1214 17.2172 17.144C17.4083 17.1974 17.5985 17.2543 17.7879 17.3147L19.1012 17.7347C20.1012 18.0547 20.8452 18.828 21.1092 19.7667L21.6505 23.5854C21.7505 24.288 21.3759 24.8254 20.8065 24.9587C19.3705 25.292 16.9519 25.6654 13.3332 25.6654C9.71455 25.6654 7.29588 25.292 5.85988 24.9587C5.29055 24.8254 4.91588 24.288 5.01455 23.5854L5.55722 19.7667C5.69769 19.2883 5.95466 18.8523 6.30511 18.4976C6.65556 18.143 7.08853 17.8808 7.56522 17.7347L8.87855 17.3147C9.06788 17.2543 9.2581 17.1974 9.44922 17.144Z" fill="#3B46F1"/>
<path d="M24.244 13.7305C24.0338 13.6781 23.8144 13.6751 23.603 13.7218C23.3915 13.7686 23.1938 13.8637 23.0253 13.9998C22.6653 14.2798 22.028 14.6665 21.3333 14.6665C21.1565 14.6665 20.9869 14.7367 20.8619 14.8617C20.7369 14.9868 20.6666 15.1563 20.6666 15.3331C20.6666 15.51 20.7369 15.6795 20.8619 15.8045C20.9869 15.9296 21.1565 15.9998 21.3333 15.9998C22.4773 15.9998 23.408 15.3905 23.844 15.0531C23.8601 15.0379 23.8798 15.0269 23.9013 15.0211H23.9066C24.0853 15.0683 24.2626 15.1207 24.4386 15.1785L25.352 15.4785C26.0533 15.7091 26.5853 16.2705 26.7733 16.9638L27.1506 19.6958C27.2253 20.2331 26.9426 20.6358 26.5373 20.7318C26.2395 20.8047 25.8782 20.8758 25.4533 20.9451C25.3668 20.9592 25.2839 20.9901 25.2094 21.0361C25.1348 21.0821 25.07 21.1424 25.0188 21.2135C24.9675 21.2846 24.9308 21.365 24.9106 21.4503C24.8905 21.5356 24.8873 21.624 24.9013 21.7105C24.9153 21.797 24.9462 21.8799 24.9923 21.9544C25.0383 22.029 25.0986 22.0937 25.1696 22.145C25.2407 22.1962 25.3212 22.233 25.4064 22.2532C25.4917 22.2733 25.5801 22.2765 25.6666 22.2625C26.1217 22.1869 26.5146 22.1091 26.8453 22.0291C28.0386 21.7451 28.6226 20.6025 28.472 19.5131L28.084 16.7051L28.0746 16.6691C27.9286 16.0982 27.6405 15.5735 27.2372 15.1439C26.8339 14.7143 26.3285 14.3936 25.768 14.2118L24.8546 13.9118C24.6529 13.8453 24.4493 13.7848 24.244 13.7305Z" fill="#3B46F1"/>
</svg>
