<svg width="18" height="18" viewBox="0 0 18 18" fill="none" xmlns="http://www.w3.org/2000/svg">
<path d="M9.00006 10.8664L2.46673 17.3998C2.22229 17.6442 1.91118 17.7664 1.5334 17.7664C1.15562 17.7664 0.844509 17.6442 0.600065 17.3998C0.35562 17.1553 0.233398 16.8442 0.233398 16.4664C0.233398 16.0886 0.35562 15.7775 0.600065 15.5331L7.1334 8.99976L0.600065 2.46643C0.35562 2.22198 0.233398 1.91087 0.233398 1.53309C0.233398 1.15532 0.35562 0.844204 0.600065 0.599759C0.844509 0.355315 1.15562 0.233093 1.5334 0.233093C1.91118 0.233093 2.22229 0.355315 2.46673 0.599759L9.00006 7.13309L15.5334 0.599759C15.7778 0.355315 16.089 0.233093 16.4667 0.233093C16.8445 0.233093 17.1556 0.355315 17.4001 0.599759C17.6445 0.844204 17.7667 1.15532 17.7667 1.53309C17.7667 1.91087 17.6445 2.22198 17.4001 2.46643L10.8667 8.99976L17.4001 15.5331C17.6445 15.7775 17.7667 16.0886 17.7667 16.4664C17.7667 16.8442 17.6445 17.1553 17.4001 17.3998C17.1556 17.6442 16.8445 17.7664 16.4667 17.7664C16.089 17.7664 15.7778 17.6442 15.5334 17.3998L9.00006 10.8664Z" fill="#6E6E6E"/>
</svg>
