<svg width="45" height="65" viewBox="0 0 45 65" fill="none" xmlns="http://www.w3.org/2000/svg">
<path d="M7.18118 6.51314C-2.81882 16.2131 -0.23549 26.5548 2.30618 30.5131C6.4062 34.2131 14.2645 26.8882 17.6812 22.7632L7.18118 16.6382L10.4312 13.6382L23.8062 16.6382C26.0145 13.9299 30.9062 9.1882 32.8062 11.8882C34.7062 14.5882 30.3478 19.1799 27.9312 21.1382L31.3062 34.5132L27.9312 37.6382L22.0562 26.7632C5.35615 38.8632 10.5978 50.8882 15.3062 55.3882C29.3062 45.3882 39.9312 40.5132 43.9312 26.7632C47.1312 15.7632 38.6667 6.22154 33.875 3.01319C29.25 0.0131886 17.1812 -3.18686 7.18118 6.51314Z" fill="#0A0A0A"/>
<path d="M41.875 32.125C40.675 39.525 28.375 57.125 22.375 65C14.675 58.2 10.75 50.125 10.75 46L17.75 53.25L23.7812 47.9688L29.8125 42.6875L35.8438 37.4062L41.875 32.125Z" fill="#3B46F1"/>
</svg>
